<svg data-v-fde0c5aa="" xmlns="http://www.w3.org/2000/svg" viewBox="0 0 300 300" class="iconAboveSlogan"><!----><defs data-v-fde0c5aa=""><!----></defs><rect data-v-fde0c5aa="" fill="#161C60" x="0" y="0" width="300px" height="300px" class="logo-background-square"></rect><defs data-v-fde0c5aa=""><!----></defs><g data-v-fde0c5aa="" id="40185d2c-a196-47f6-a03b-f03e89901a2a" fill="#D6B425" transform="matrix(4.581037463843106,0,0,4.581037463843106,3.0632198521781566,141.49165052077817)"><path d="M4.86 13.23L4.86 13.23Q3.37 13.23 2.35 12.82L2.35 12.82L2.35 12.82Q1.32 12.42 0.80 11.74L0.80 11.74L0.80 11.74Q0.28 11.06 0.25 10.25L0.25 10.25L0.25 10.25Q0.25 10.12 0.34 10.03L0.34 10.03L0.34 10.03Q0.43 9.94 0.56 9.94L0.56 9.94L3.22 9.94L3.22 9.94Q3.42 9.94 3.54 9.99L3.54 9.99L3.54 9.99Q3.65 10.04 3.82 10.18L3.82 10.18L3.82 10.18Q4.23 10.50 4.86 10.50L4.86 10.50L4.86 10.50Q5.33 10.50 5.62 10.39L5.62 10.39L5.62 10.39Q5.91 10.29 5.91 10.11L5.91 10.11L5.91 10.11Q5.91 9.86 5.53 9.72L5.53 9.72L5.53 9.72Q5.15 9.59 4.10 9.45L4.10 9.45L4.10 9.45Q0.49 8.97 0.49 6.37L0.49 6.37L0.49 6.37Q0.49 5.43 1.03 4.70L1.03 4.70L1.03 4.70Q1.57 3.96 2.53 3.56L2.53 3.56L2.53 3.56Q3.50 3.15 4.76 3.15L4.76 3.15L4.76 3.15Q6.08 3.15 7.07 3.60L7.07 3.60L7.07 3.60Q8.06 4.05 8.60 4.72L8.60 4.72L8.60 4.72Q9.13 5.40 9.16 6.05L9.16 6.05L9.16 6.05Q9.16 6.17 9.06 6.26L9.06 6.26L9.06 6.26Q8.97 6.36 8.86 6.36L8.86 6.36L6.06 6.36L6.06 6.36Q5.87 6.36 5.75 6.31L5.75 6.31L5.75 6.31Q5.64 6.26 5.50 6.13L5.50 6.13L5.50 6.13Q5.21 5.88 4.76 5.88L4.76 5.88L4.76 5.88Q4.09 5.88 4.09 6.27L4.09 6.27L4.09 6.27Q4.09 6.48 4.42 6.62L4.42 6.62L4.42 6.62Q4.75 6.76 5.64 6.87L5.64 6.87L5.64 6.87Q7.04 7.06 7.89 7.42L7.89 7.42L7.89 7.42Q8.74 7.78 9.12 8.39L9.12 8.39L9.12 8.39Q9.51 9.00 9.51 9.93L9.51 9.93L9.51 9.93Q9.51 10.92 8.90 11.67L8.90 11.67L8.90 11.67Q8.30 12.42 7.25 12.82L7.25 12.82L7.25 12.82Q6.19 13.23 4.86 13.23L4.86 13.23ZM10.77 13.09L10.77 13.09Q10.61 13.09 10.50 12.98L10.50 12.98L10.50 12.98Q10.39 12.87 10.39 12.71L10.39 12.71L10.39 3.53L10.39 3.53Q10.39 3.37 10.50 3.26L10.50 3.26L10.50 3.26Q10.61 3.15 10.77 3.15L10.77 3.15L13.50 3.15L13.50 3.15Q13.65 3.15 13.76 3.26L13.76 3.26L13.76 3.26Q13.87 3.37 13.87 3.53L13.87 3.53L13.87 6.54L13.87 6.54Q14.25 6.13 14.80 5.90L14.80 5.90L14.80 5.90Q15.36 5.67 16.00 5.67L16.00 5.67L16.00 5.67Q16.74 5.67 17.37 6.01L17.37 6.01L17.37 6.01Q18.00 6.36 18.40 7.08L18.40 7.08L18.40 7.08Q18.79 7.80 18.79 8.85L18.79 8.85L18.79 12.71L18.79 12.71Q18.79 12.87 18.68 12.98L18.68 12.98L18.68 12.98Q18.56 13.09 18.41 13.09L18.41 13.09L15.67 13.09L15.67 13.09Q15.51 13.09 15.40 12.98L15.40 12.98L15.40 12.98Q15.29 12.87 15.29 12.71L15.29 12.71L15.29 8.95L15.29 8.95Q15.29 8.57 15.11 8.37L15.11 8.37L15.11 8.37Q14.92 8.18 14.59 8.18L14.59 8.18L14.59 8.18Q14.25 8.18 14.06 8.37L14.06 8.37L14.06 8.37Q13.87 8.57 13.87 8.95L13.87 8.95L13.87 12.71L13.87 12.71Q13.87 12.87 13.76 12.98L13.76 12.98L13.76 12.98Q13.65 13.09 13.50 13.09L13.50 13.09L10.77 13.09ZM23.84 13.23L23.84 13.23Q19.99 13.23 19.78 10.11L19.78 10.11L19.78 10.11Q19.77 9.90 19.77 9.45L19.77 9.45L19.77 9.45Q19.77 9.00 19.78 8.79L19.78 8.79L19.78 8.79Q19.88 7.27 20.94 6.47L20.94 6.47L20.94 6.47Q22.01 5.67 23.84 5.67L23.84 5.67L23.84 5.67Q25.68 5.67 26.74 6.47L26.74 6.47L26.74 6.47Q27.80 7.27 27.90 8.79L27.90 8.79L27.90 8.79Q27.93 9.21 27.93 9.45L27.93 9.45L27.93 9.45Q27.93 9.69 27.90 10.11L27.90 10.11L27.90 10.11Q27.69 13.23 23.84 13.23L23.84 13.23ZM23.84 10.99L23.84 10.99Q24.22 10.99 24.33 10.79L24.33 10.79L24.33 10.79Q24.44 10.58 24.47 10.04L24.47 10.04L24.47 10.04Q24.49 9.90 24.49 9.45L24.49 9.45L24.49 9.45Q24.49 9.00 24.47 8.86L24.47 8.86L24.47 8.86Q24.43 8.33 24.32 8.12L24.32 8.12L24.32 8.12Q24.21 7.91 23.84 7.91L23.84 7.91L23.84 7.91Q23.48 7.91 23.37 8.12L23.37 8.12L23.37 8.12Q23.25 8.33 23.21 8.86L23.21 8.86L23.20 9.45L23.21 10.04L23.21 10.04Q23.24 10.58 23.35 10.79L23.35 10.79L23.35 10.79Q23.46 10.99 23.84 10.99L23.84 10.99ZM29.34 13.09L29.34 13.09Q29.19 13.09 29.08 12.98L29.08 12.98L29.08 12.98Q28.97 12.87 28.97 12.71L28.97 12.71L28.97 6.19L28.97 6.19Q28.97 6.03 29.08 5.92L29.08 5.92L29.08 5.92Q29.19 5.81 29.34 5.81L29.34 5.81L31.79 5.81L31.79 5.81Q31.95 5.81 32.06 5.92L32.06 5.92L32.06 5.92Q32.17 6.03 32.17 6.19L32.17 6.19L32.17 6.68L32.17 6.68Q32.63 6.27 33.19 6.04L33.19 6.04L33.19 6.04Q33.75 5.81 34.36 5.81L34.36 5.81L35.03 5.81L35.03 5.81Q35.18 5.81 35.29 5.92L35.29 5.92L35.29 5.92Q35.41 6.03 35.41 6.19L35.41 6.19L35.41 8.37L35.41 8.37Q35.41 8.53 35.29 8.64L35.29 8.64L35.29 8.64Q35.18 8.75 35.03 8.75L35.03 8.75L33.22 8.75L33.22 8.75Q32.38 8.75 32.38 9.59L32.38 9.59L32.38 12.71L32.38 12.71Q32.38 12.87 32.27 12.98L32.27 12.98L32.27 12.98Q32.16 13.09 32.00 13.09L32.00 13.09L29.34 13.09ZM40.73 13.09L40.73 13.09Q39.07 13.09 38.15 12.40L38.15 12.40L38.15 12.40Q37.23 11.70 37.23 10.08L37.23 10.08L37.23 8.26L36.12 8.26L36.12 8.26Q35.97 8.26 35.85 8.15L35.85 8.15L35.85 8.15Q35.74 8.04 35.74 7.88L35.74 7.88L35.74 6.19L35.74 6.19Q35.74 6.03 35.85 5.92L35.85 5.92L35.85 5.92Q35.97 5.81 36.12 5.81L36.12 5.81L37.23 5.81L37.23 3.53L37.23 3.53Q37.23 3.37 37.34 3.26L37.34 3.26L37.34 3.26Q37.45 3.15 37.60 3.15L37.60 3.15L40.05 3.15L40.05 3.15Q40.21 3.15 40.32 3.26L40.32 3.26L40.32 3.26Q40.43 3.37 40.43 3.53L40.43 3.53L40.43 5.81L42.20 5.81L42.20 5.81Q42.35 5.81 42.46 5.92L42.46 5.92L42.46 5.92Q42.57 6.03 42.57 6.19L42.57 6.19L42.57 7.88L42.57 7.88Q42.57 8.04 42.46 8.15L42.46 8.15L42.46 8.15Q42.35 8.26 42.20 8.26L42.20 8.26L40.43 8.26L40.43 9.80L40.43 9.80Q40.43 10.50 41.03 10.50L41.03 10.50L42.31 10.50L42.31 10.50Q42.46 10.50 42.57 10.61L42.57 10.61L42.57 10.61Q42.69 10.72 42.69 10.88L42.69 10.88L42.69 12.71L42.69 12.71Q42.69 12.87 42.57 12.98L42.57 12.98L42.57 12.98Q42.46 13.09 42.31 13.09L42.31 13.09L40.73 13.09ZM46.65 13.09L46.65 13.09Q46.49 13.09 46.38 12.98L46.38 12.98L46.38 12.98Q46.27 12.87 46.27 12.71L46.27 12.71L46.27 6.19L46.27 6.19Q46.27 6.03 46.38 5.92L46.38 5.92L46.38 5.92Q46.49 5.81 46.65 5.81L46.65 5.81L49.10 5.81L49.10 5.81Q49.25 5.81 49.36 5.92L49.36 5.92L49.36 5.92Q49.48 6.03 49.48 6.19L49.48 6.19L49.48 6.65L49.48 6.65Q49.84 6.22 50.46 5.94L50.46 5.94L50.46 5.94Q51.09 5.67 51.80 5.67L51.80 5.67L51.80 5.67Q52.54 5.67 53.16 6.01L53.16 6.01L53.16 6.01Q53.77 6.36 54.15 7.07L54.15 7.07L54.15 7.07Q54.52 7.78 54.52 8.85L54.52 8.85L54.52 12.71L54.52 12.71Q54.52 12.87 54.40 12.98L54.40 12.98L54.40 12.98Q54.29 13.09 54.14 13.09L54.14 13.09L51.46 13.09L51.46 13.09Q51.31 13.09 51.20 12.98L51.20 12.98L51.20 12.98Q51.09 12.87 51.09 12.71L51.09 12.71L51.09 8.95L51.09 8.95Q51.09 8.57 50.90 8.37L50.90 8.37L50.90 8.37Q50.72 8.18 50.39 8.18L50.39 8.18L50.39 8.18Q50.05 8.18 49.87 8.37L49.87 8.37L49.87 8.37Q49.69 8.57 49.69 8.95L49.69 8.95L49.69 12.71L49.69 12.71Q49.69 12.87 49.57 12.98L49.57 12.98L49.57 12.98Q49.46 13.09 49.31 13.09L49.31 13.09L46.65 13.09ZM57.15 15.75L57.15 15.75Q57.02 15.75 56.93 15.67L56.93 15.67L56.93 15.67Q56.84 15.58 56.84 15.46L56.84 15.46L56.84 15.46Q56.84 15.44 56.83 15.40L56.83 15.40L56.83 15.40Q56.83 15.36 56.85 15.32L56.85 15.32L57.97 12.63L55.27 6.24L55.27 6.24Q55.26 6.20 55.26 6.15L55.26 6.15L55.26 6.15Q55.29 6.01 55.38 5.91L55.38 5.91L55.38 5.91Q55.48 5.81 55.61 5.81L55.61 5.81L57.97 5.81L57.97 5.81Q58.30 5.81 58.42 6.15L58.42 6.15L59.57 9.34L60.76 6.15L60.76 6.15Q60.90 5.81 61.24 5.81L61.24 5.81L63.57 5.81L63.57 5.81Q63.70 5.81 63.80 5.90L63.80 5.90L63.80 5.90Q63.90 5.99 63.90 6.10L63.90 6.10L63.90 6.10Q63.90 6.19 63.88 6.24L63.88 6.24L59.93 15.41L59.93 15.41Q59.79 15.75 59.44 15.75L59.44 15.75L57.15 15.75Z"></path></g><defs data-v-fde0c5aa=""><!----></defs><g data-v-fde0c5aa="" id="132de66c-28ca-40e9-a608-445d31f6b1ea" stroke="none" fill="#D6257B" transform="matrix(1.20891269372886,0,0,1.20891269372886,89.55436877228396,28.515329409575816)"><path d="M58.2 58.1c2.1-2.1 3.8-4.8 5-7.8.7-1.8-.2-3.8-2.1-4.5-.9-.3-1.8-.3-2.7.1-.8.4-1.5 1.1-1.8 2-.7 2-1.9 3.8-3.4 5.3-2.6 2.6-6.2 4.1-10 4.1-3.7 0-7.4-1.5-10-4.1L20.6 40.7c-2.6-2.6-4.1-6.2-4.1-10 0-3.7 1.5-7.4 4.1-10 5.5-5.5 14.5-5.5 20 0l11.7 11.7c.7.7 1.7 1.1 2.6 1 .9 0 1.8-.4 2.3-1 .7-.7 1.1-1.6 1-2.6 0-.9-.4-1.8-1-2.3L45.6 15.7c-4-4-9.3-6.2-15-6.2h-.1c-5.6 0-10.9 2.2-14.9 6.2s-6.2 9.3-6.2 15c0 5.6 2.2 10.9 6.2 15l12.5 12.4c4 4 9.3 6.2 15 6.2 5.6 0 11-2.2 15.1-6.2z"></path><path d="M84.4 54.3L71.8 41.9c-4-4-9.3-6.2-15-6.2-5.6 0-10.9 2.2-15 6.2-2.1 2.1-3.8 4.8-5 7.8-.3.9-.3 1.8.1 2.7.4.8 1.1 1.5 2 1.8 1.8.7 3.8-.2 4.5-2.1.8-2 1.9-3.8 3.4-5.3 2.6-2.6 6.2-4.1 10-4.1 3.7 0 7.4 1.5 10 4.1l12.5 12.5c2.6 2.6 4.1 6.2 4.1 10 0 3.7-1.5 7.4-4.1 10-2.6 2.7-6.1 4.2-9.8 4.2h-.1c-3.7 0-7.3-1.5-9.9-4.1L47.6 67.7c-.7-.7-1.6-1.1-2.6-1-.9 0-1.8.4-2.3 1-.7.7-1.1 1.6-1 2.6 0 .9.4 1.8 1 2.3l11.7 11.7c4 4 9.3 6.2 15 6.2 5.6 0 10.9-2.2 15-6.2 4-4 6.2-9.3 6.2-15-.1-5.6-2.2-10.9-6.2-15z"></path></g><defs data-v-fde0c5aa=""><!----></defs><g data-v-fde0c5aa="" id="f137af06-6864-4187-90db-e80ce400f858" fill="#21ACC3" transform="matrix(2.1809842275277833,0,0,2.1809842275277833,37.58117172558822,215.878689035514)"><path d="M10.54 5.74L10.54 5.74L10.54 5.74Q10.58 5.98 10.61 6.07L10.61 6.07L10.61 6.07Q10.63 6.16 10.63 6.31L10.63 6.31L10.63 6.31Q10.63 6.78 10.42 7.18L10.42 7.18L10.42 7.18Q10.22 7.57 9.87 7.74L9.87 7.74L9.87 7.74Q9.59 7.36 9.18 7.09L9.18 7.09L9.18 7.09Q8.78 6.82 8.29 6.64L8.29 6.64L8.29 6.64Q7.81 6.47 7.29 6.38L7.29 6.38L7.29 6.38Q6.78 6.30 6.29 6.30L6.29 6.30L6.29 6.30Q5.80 6.30 5.37 6.38L5.37 6.38L5.37 6.38Q4.94 6.45 4.61 6.59L4.61 6.59L4.61 6.59Q4.28 6.72 4.09 6.92L4.09 6.92L4.09 6.92Q3.91 7.11 3.91 7.36L3.91 7.36L3.91 7.36Q3.95 7.67 4.28 7.99L4.28 7.99L4.28 7.99Q4.62 8.30 5.11 8.60L5.11 8.60L5.11 8.60Q5.60 8.90 6.20 9.20L6.20 9.20L6.20 9.20Q6.79 9.49 7.36 9.76L7.36 9.76L7.36 9.76Q8.08 10.09 8.60 10.38L8.60 10.38L8.60 10.38Q9.11 10.67 9.45 11.01L9.45 11.01L9.45 11.01Q9.79 11.35 9.95 11.79L9.95 11.79L9.95 11.79Q10.12 12.22 10.12 12.84L10.12 12.84L10.12 12.84Q10.12 13.55 9.88 14.18L9.88 14.18L9.88 14.18Q9.65 14.80 9.19 15.26L9.19 15.26L9.19 15.26Q8.74 15.72 8.09 15.98L8.09 15.98L8.09 15.98Q7.45 16.24 6.65 16.24L6.65 16.24L6.65 16.24Q5.87 16.24 4.96 16.00L4.96 16.00L4.96 16.00Q4.05 15.76 3.25 15.35L3.25 15.35L3.25 15.35Q2.46 14.94 1.94 14.40L1.94 14.40L1.94 14.40Q1.41 13.86 1.41 13.26L1.41 13.26L1.41 13.26Q1.41 12.98 1.57 12.54L1.57 12.54L1.57 12.54Q1.74 12.11 2.16 11.63L2.16 11.63L2.16 11.63Q2.20 12.05 2.61 12.63L2.61 12.63L2.61 12.63Q3.02 13.20 3.85 13.69L3.85 13.69L3.85 13.69Q4.62 14.14 5.44 14.34L5.44 14.34L5.44 14.34Q6.26 14.55 6.97 14.55L6.97 14.55L6.97 14.55Q7.76 14.55 8.25 14.35L8.25 14.35L8.25 14.35Q8.74 14.15 9.02 13.88L9.02 13.88L9.02 13.88Q9.30 13.61 9.41 13.33L9.41 13.33L9.41 13.33Q9.52 13.05 9.53 12.88L9.53 12.88L9.53 12.88Q9.52 12.60 9.28 12.34L9.28 12.34L9.28 12.34Q9.03 12.08 8.62 11.84L8.62 11.84L8.62 11.84Q8.20 11.59 7.66 11.34L7.66 11.34L7.66 11.34Q7.11 11.09 6.52 10.84L6.52 10.84L6.52 10.84Q5.64 10.44 5.00 10.10L5.00 10.10L5.00 10.10Q4.37 9.76 3.96 9.40L3.96 9.40L3.96 9.40Q3.54 9.04 3.35 8.65L3.35 8.65L3.35 8.65Q3.16 8.26 3.16 7.76L3.16 7.76L3.16 7.76Q3.16 6.97 3.64 6.27L3.64 6.27L3.64 6.27Q4.12 5.57 5.01 5.21L5.01 5.21L5.01 5.21Q5.46 5.01 5.97 4.93L5.97 4.93L5.97 4.93Q6.48 4.84 6.97 4.84L6.97 4.84L6.97 4.84Q7.90 4.84 8.78 5.10L8.78 5.10L8.78 5.10Q9.66 5.35 10.54 5.74ZM18.05 14.94L18.05 14.94L18.05 14.94Q18.05 14.45 18.14 13.78L18.14 13.78L18.14 13.78Q18.24 13.12 18.43 12.36L18.43 12.36L18.43 12.36Q18.62 11.61 18.88 10.78L18.88 10.78L18.88 10.78Q19.14 9.95 19.46 9.13L19.46 9.13L19.46 9.13Q19.74 8.39 20.11 7.63L20.11 7.63L20.11 7.63Q20.48 6.87 20.92 6.15L20.92 6.15L20.92 6.15Q21.35 5.42 21.82 4.76L21.82 4.76L21.82 4.76Q22.29 4.10 22.76 3.56L22.76 3.56L22.76 3.56Q22.99 3.56 23.25 3.61L23.25 3.61L23.25 3.61Q23.51 3.67 23.75 3.76L23.75 3.76L23.75 3.76Q24.00 3.85 24.20 3.98L24.20 3.98L24.20 3.98Q24.40 4.10 24.53 4.23L24.53 4.23L24.53 4.23Q23.48 5.31 22.64 6.40L22.64 6.40L22.64 6.40Q21.80 7.50 21.31 8.47L21.31 8.47L21.31 8.47Q21.04 9.00 20.82 9.46L20.82 9.46L20.82 9.46Q20.61 9.93 20.43 10.38L20.43 10.38L20.43 10.38Q20.24 10.84 20.10 11.29L20.10 11.29L20.10 11.29Q19.95 11.75 19.82 12.25L19.82 12.25L19.82 12.25Q22.51 8.82 23.81 8.82L23.81 8.82L23.81 8.82Q24.18 8.82 24.60 9.06L24.60 9.06L24.60 9.06Q25.02 9.30 25.34 9.70L25.34 9.70L25.34 9.70Q24.91 10.18 24.44 10.85L24.44 10.85L24.44 10.85Q23.98 11.52 23.60 12.20L23.60 12.20L23.60 12.20Q23.21 12.88 22.97 13.46L22.97 13.46L22.97 13.46Q22.72 14.04 22.72 14.32L22.72 14.32L22.72 14.32Q22.72 14.46 22.76 14.51L22.76 14.51L22.76 14.51Q22.81 14.56 22.95 14.56L22.95 14.56L22.95 14.56Q23.16 14.56 23.28 14.50L23.28 14.50L23.28 14.50Q23.41 14.45 23.44 14.45L23.44 14.45L23.44 14.45Q23.51 14.56 23.52 14.60L23.52 14.60L23.52 14.60Q23.53 14.64 23.53 14.67L23.53 14.67L23.53 14.67Q23.53 14.73 23.37 14.83L23.37 14.83L23.37 14.83Q23.20 14.94 22.97 15.04L22.97 15.04L22.97 15.04Q22.74 15.15 22.51 15.23L22.51 15.23L22.51 15.23Q22.29 15.32 22.18 15.32L22.18 15.32L22.18 15.32Q22.04 15.32 21.90 15.24L21.90 15.24L21.90 15.24Q21.76 15.16 21.65 15.04L21.65 15.04L21.65 15.04Q21.55 14.91 21.48 14.76L21.48 14.76L21.48 14.76Q21.42 14.60 21.42 14.43L21.42 14.43L21.42 14.43Q21.42 14.22 21.54 13.81L21.54 13.81L21.54 13.81Q21.66 13.40 21.87 12.85L21.87 12.85L21.87 12.85Q22.08 12.29 22.37 11.63L22.37 11.63L22.37 11.63Q22.67 10.98 23.00 10.29L23.00 10.29L23.00 10.29Q23.00 10.23 22.95 10.23L22.95 10.23L22.95 10.23Q22.90 10.23 22.73 10.35L22.73 10.35L22.73 10.35Q22.55 10.46 22.40 10.57L22.40 10.57L22.40 10.57Q21.90 10.95 21.38 11.50L21.38 11.50L21.38 11.50Q20.87 12.05 20.39 12.71L20.39 12.71L20.39 12.71Q19.91 13.37 19.48 14.11L19.48 14.11L19.48 14.11Q19.05 14.84 18.75 15.58L18.75 15.58L18.75 15.58Q18.70 15.68 18.62 15.76L18.62 15.76L18.62 15.76Q18.54 15.85 18.48 15.85L18.48 15.85L18.48 15.85Q18.44 15.85 18.36 15.75L18.36 15.75L18.36 15.75Q18.28 15.65 18.22 15.51L18.22 15.51L18.22 15.51Q18.16 15.36 18.10 15.20L18.10 15.20L18.10 15.20Q18.05 15.05 18.05 14.94ZM33.95 15.67L33.95 15.67L33.95 15.67Q33.15 15.58 32.68 14.97L32.68 14.97L32.68 14.97Q32.20 14.35 32.20 13.40L32.20 13.40L32.20 13.40Q32.20 12.84 32.37 12.24L32.37 12.24L32.37 12.24Q32.54 11.63 32.84 11.07L32.84 11.07L32.84 11.07Q33.15 10.50 33.57 10.00L33.57 10.00L33.57 10.00Q33.99 9.49 34.48 9.13L34.48 9.13L34.48 9.13Q35.25 8.55 35.92 8.55L35.92 8.55L35.92 8.55Q36.37 8.79 36.81 9.55L36.81 9.55L36.81 9.55Q36.88 9.55 36.93 9.54L36.93 9.54L36.93 9.54Q36.99 9.53 37.06 9.53L37.06 9.53L37.06 9.53Q37.80 9.53 37.80 10.85L37.80 10.85L37.80 10.85Q37.80 11.73 37.51 12.52L37.51 12.52L37.51 12.52Q37.23 13.31 36.71 13.96L36.71 13.96L36.71 13.96Q36.20 14.60 35.50 15.04L35.50 15.04L35.50 15.04Q34.79 15.48 33.95 15.67ZM34.66 11.26L34.66 11.26L34.66 11.26Q34.43 11.58 34.22 11.96L34.22 11.96L34.22 11.96Q34.01 12.33 33.85 12.72L33.85 12.72L33.85 12.72Q33.70 13.10 33.61 13.46L33.61 13.46L33.61 13.46Q33.53 13.82 33.53 14.10L33.53 14.10L33.53 14.10Q33.53 14.43 33.64 14.74L33.64 14.74L33.64 14.74Q33.75 15.05 33.89 15.09L33.89 15.09L33.89 15.09Q34.52 14.95 35.05 14.57L35.05 14.57L35.05 14.57Q35.57 14.18 35.96 13.61L35.96 13.61L35.96 13.61Q36.34 13.03 36.56 12.31L36.56 12.31L36.56 12.31Q36.78 11.58 36.78 10.75L36.78 10.75L36.78 10.75Q36.78 10.39 36.74 10.18L36.74 10.18L36.74 10.18Q36.69 9.97 36.60 9.81L36.60 9.81L36.60 9.81Q35.98 10.00 35.50 10.40L35.50 10.40L35.50 10.40Q35.01 10.81 34.66 11.26ZM45.14 14.90L45.14 14.90L45.14 14.90Q45.21 14.49 45.38 13.82L45.38 13.82L45.38 13.82Q45.56 13.16 45.79 12.41L45.79 12.41L45.79 12.41Q46.03 11.66 46.30 10.91L46.30 10.91L46.30 10.91Q46.56 10.15 46.82 9.55L46.82 9.55L46.82 9.55Q47.00 9.11 47.14 8.87L47.14 8.87L47.14 8.87Q47.28 8.62 47.45 8.46L47.45 8.46L47.45 8.46Q47.64 8.48 47.85 8.55L47.85 8.55L47.85 8.55Q48.06 8.62 48.26 8.72L48.26 8.72L48.26 8.72Q48.45 8.82 48.61 8.93L48.61 8.93L48.61 8.93Q48.76 9.03 48.85 9.13L48.85 9.13L48.85 9.13Q48.47 9.58 48.18 10.15L48.18 10.15L48.18 10.15Q47.89 10.72 47.60 11.62L47.60 11.62L47.60 11.62Q48.36 10.95 48.94 10.33L48.94 10.33L48.94 10.33Q49.52 9.72 50.02 8.96L50.02 8.96L50.02 8.96Q50.11 8.89 50.32 8.89L50.32 8.89L50.32 8.89Q50.51 8.89 50.69 8.95L50.69 8.95L50.69 8.95Q50.88 9.02 50.95 9.13L50.95 9.13L50.95 9.13Q50.69 9.80 50.69 10.46L50.69 10.46L50.69 10.46Q50.69 11.07 50.88 11.38L50.88 11.38L50.88 11.38Q50.86 11.47 50.69 11.70L50.69 11.70L50.69 11.70Q50.51 11.94 50.30 12.15L50.30 12.15L50.30 12.15Q49.92 11.96 49.63 11.61L49.63 11.61L49.63 11.61Q49.34 11.27 49.20 10.86L49.20 10.86L49.20 10.86Q48.54 11.33 48.08 11.77L48.08 11.77L48.08 11.77Q47.61 12.21 47.28 12.75L47.28 12.75L47.28 12.75Q46.96 13.29 46.72 13.99L46.72 13.99L46.72 13.99Q46.49 14.69 46.28 15.65L46.28 15.65L46.28 15.65Q46.16 15.64 45.98 15.56L45.98 15.56L45.98 15.56Q45.81 15.48 45.63 15.37L45.63 15.37L45.63 15.37Q45.46 15.26 45.32 15.13L45.32 15.13L45.32 15.13Q45.18 15.01 45.14 14.90ZM59.74 9.81L58.94 9.81L58.94 9.81Q58.87 9.73 58.81 9.46L58.81 9.46L58.81 9.46Q58.76 9.18 58.76 8.99L58.76 8.99L58.76 8.99Q59.12 9.02 59.46 9.04L59.46 9.04L59.46 9.04Q59.79 9.06 60.07 9.07L60.07 9.07L60.07 9.07Q60.28 8.65 60.53 8.24L60.53 8.24L60.53 8.24Q60.77 7.83 61.01 7.48L61.01 7.48L61.01 7.48Q61.24 7.14 61.44 6.90L61.44 6.90L61.44 6.90Q61.64 6.66 61.75 6.59L61.75 6.59L61.75 6.59Q61.89 6.59 62.11 6.64L62.11 6.64L62.11 6.64Q62.33 6.69 62.55 6.77L62.55 6.77L62.55 6.77Q62.78 6.85 62.96 6.93L62.96 6.93L62.96 6.93Q63.14 7.01 63.21 7.10L63.21 7.10L63.21 7.10Q62.79 7.63 62.49 8.09L62.49 8.09L62.49 8.09Q62.19 8.54 61.84 9.13L61.84 9.13L61.84 9.13Q62.12 9.13 62.41 9.11L62.41 9.11L62.41 9.11Q62.69 9.10 62.99 9.07L62.99 9.07L62.99 9.07Q63.06 9.14 63.10 9.25L63.10 9.25L63.10 9.25Q63.14 9.35 63.14 9.46L63.14 9.46L63.14 9.46Q62.45 9.72 61.47 9.74L61.47 9.74L61.47 9.74Q61.12 10.42 60.85 11.08L60.85 11.08L60.85 11.08Q60.58 11.75 60.39 12.36L60.39 12.36L60.39 12.36Q60.20 12.98 60.09 13.52L60.09 13.52L60.09 13.52Q59.99 14.07 59.99 14.50L59.99 14.50L59.99 14.50Q59.99 15.12 60.45 15.19L60.45 15.19L60.45 15.19Q60.87 15.13 61.25 14.98L61.25 14.98L61.25 14.98Q61.63 14.83 61.92 14.59L61.92 14.59L61.92 14.59Q62.01 14.71 62.02 14.80L62.02 14.80L62.02 14.80Q61.94 14.92 61.73 15.09L61.73 15.09L61.73 15.09Q61.53 15.26 61.29 15.42L61.29 15.42L61.29 15.42Q61.05 15.58 60.83 15.69L60.83 15.69L60.83 15.69Q60.61 15.81 60.49 15.82L60.49 15.82L60.49 15.82Q60.14 15.81 59.79 15.67L59.79 15.67L59.79 15.67Q59.44 15.53 59.16 15.32L59.16 15.32L59.16 15.32Q58.87 15.11 58.69 14.85L58.69 14.85L58.69 14.85Q58.51 14.59 58.51 14.34L58.51 14.34L58.51 14.34Q58.51 14 58.60 13.49L58.60 13.49L58.60 13.49Q58.69 12.98 58.86 12.38L58.86 12.38L58.86 12.38Q59.02 11.77 59.25 11.12L59.25 11.12L59.25 11.12Q59.47 10.46 59.74 9.81L59.74 9.81ZM82.64 8.39L82.64 8.39L82.64 8.39Q83.01 8.50 83.33 8.88L83.33 8.88L83.33 8.88Q83.65 9.27 83.80 9.73L83.80 9.73L83.80 9.73Q83.65 10.11 83.33 10.64L83.33 10.64L83.33 10.64Q83.01 11.17 82.68 11.72L82.68 11.72L82.68 11.72Q82.36 12.28 82.10 12.78L82.10 12.78L82.10 12.78Q81.84 13.27 81.80 13.59L81.80 13.59L81.80 13.59Q82.03 13.36 82.30 13.04L82.30 13.04L82.30 13.04Q82.57 12.73 82.83 12.41L82.83 12.41L82.83 12.41Q83.09 12.10 83.31 11.84L83.31 11.84L83.31 11.84Q83.54 11.58 83.66 11.45L83.66 11.45L83.66 11.45Q83.93 11.17 84.29 10.80L84.29 10.80L84.29 10.80Q84.66 10.43 85.06 10.10L85.06 10.10L85.06 10.10Q85.46 9.77 85.86 9.54L85.86 9.54L85.86 9.54Q86.27 9.31 86.60 9.31L86.60 9.31L86.60 9.31Q86.97 9.31 87.21 9.55L87.21 9.55L87.21 9.55Q87.46 9.80 87.60 10.07L87.60 10.07L87.60 10.07Q87.60 10.09 87.49 10.14L87.49 10.14L87.49 10.14Q87.39 10.19 87.19 10.42L87.19 10.42L87.19 10.42Q87.00 10.67 86.75 11.11L86.75 11.11L86.75 11.11Q86.51 11.55 86.27 12.06L86.27 12.06L86.27 12.06Q86.04 12.57 85.89 13.10L85.89 13.10L85.89 13.10Q85.74 13.64 85.74 14.07L85.74 14.07L85.74 14.07Q85.74 14.42 85.83 14.52L85.83 14.52L85.83 14.52Q85.92 14.62 86.09 14.62L86.09 14.62L86.09 14.62Q86.24 14.62 86.41 14.55L86.41 14.55L86.41 14.55Q86.58 14.48 86.67 14.48L86.67 14.48L86.67 14.48Q86.73 14.50 86.76 14.60L86.76 14.60L86.76 14.60Q86.80 14.69 86.80 14.76L86.80 14.76L86.80 14.76Q86.69 14.85 86.53 14.95L86.53 14.95L86.53 14.95Q86.38 15.05 86.21 15.13L86.21 15.13L86.21 15.13Q86.04 15.22 85.88 15.27L85.88 15.27L85.88 15.27Q85.72 15.33 85.60 15.33L85.60 15.33L85.60 15.33Q85.19 15.33 84.93 15.21L84.93 15.21L84.93 15.21Q84.67 15.09 84.52 14.90L84.52 14.90L84.52 14.90Q84.38 14.70 84.32 14.43L84.32 14.43L84.32 14.43Q84.27 14.15 84.27 13.85L84.27 13.85L84.27 13.85Q84.27 13.68 84.29 13.47L84.29 13.47L84.29 13.47Q84.32 13.26 84.41 12.97L84.41 12.97L84.41 12.97Q84.49 12.68 84.64 12.29L84.64 12.29L84.64 12.29Q84.80 11.89 85.04 11.33L85.04 11.33L85.04 11.33Q85.01 11.33 84.66 11.52L84.66 11.52L84.66 11.52Q84.31 11.72 83.90 12.12L83.90 12.12L83.90 12.12Q83.24 12.75 82.72 13.37L82.72 13.37L82.72 13.37Q82.19 13.99 81.65 14.74L81.65 14.74L81.65 14.74Q81.34 15.18 81.11 15.48L81.11 15.48L81.11 15.48Q80.88 15.78 80.71 15.88L80.71 15.88L80.71 15.88Q80.42 15.71 80.28 15.41L80.28 15.41L80.28 15.41Q80.14 15.11 80.07 14.78L80.07 14.78L80.07 14.78Q80.07 14.52 80.14 14.11L80.14 14.11L80.14 14.11Q80.22 13.71 80.35 13.21L80.35 13.21L80.35 13.21Q80.49 12.71 80.68 12.17L80.68 12.17L80.68 12.17Q80.88 11.62 81.12 11.07L81.12 11.07L81.12 11.07Q81.65 9.84 82.09 9.14L82.09 9.14L82.09 9.14Q82.53 8.44 82.64 8.39ZM100.20 13.01L100.20 13.01L100.20 13.01Q99.88 14.03 99.55 14.87L99.55 14.87L99.55 14.87Q99.23 15.71 98.87 16.41L98.87 16.41L98.87 16.41Q98.50 17.12 98.08 17.72L98.08 17.72L98.08 17.72Q97.66 18.31 97.16 18.84L97.16 18.84L97.16 18.84Q96.52 19.52 95.83 19.87L95.83 19.87L95.83 19.87Q95.14 20.23 94.46 20.23L94.46 20.23L94.46 20.23Q94.11 20.23 93.76 20.15L93.76 20.15L93.76 20.15Q93.42 20.08 93.12 19.94L93.12 19.94L93.12 19.94Q92.82 19.81 92.59 19.64L92.59 19.64L92.59 19.64Q92.36 19.46 92.26 19.26L92.26 19.26L92.26 19.26Q92.26 19.10 92.46 18.97L92.46 18.97L92.46 18.97Q92.62 19.12 92.74 19.21L92.74 19.21L92.74 19.21Q92.85 19.29 92.95 19.35L92.95 19.35L92.95 19.35Q93.06 19.40 93.18 19.42L93.18 19.42L93.18 19.42Q93.30 19.43 93.45 19.43L93.45 19.43L93.45 19.43Q94.25 19.43 95.01 18.96L95.01 18.96L95.01 18.96Q95.77 18.49 96.45 17.63L96.45 17.63L96.45 17.63Q97.13 16.77 97.69 15.55L97.69 15.55L97.69 15.55Q98.25 14.32 98.64 12.81L98.64 12.81L98.64 12.81Q98.46 13.09 98.20 13.50L98.20 13.50L98.20 13.50Q97.93 13.90 97.61 14.30L97.61 14.30L97.61 14.30Q97.29 14.70 96.94 15.02L96.94 15.02L96.94 15.02Q96.60 15.34 96.28 15.46L96.28 15.46L96.28 15.46Q96.05 15.44 95.81 15.37L95.81 15.37L95.81 15.37Q95.56 15.29 95.35 15.15L95.35 15.15L95.35 15.15Q95.13 15.01 94.96 14.81L94.96 14.81L94.96 14.81Q94.79 14.62 94.74 14.36L94.74 14.36L94.74 14.36Q94.74 13.96 94.77 13.71L94.77 13.71L94.77 13.71Q94.79 13.47 94.86 13.17L94.86 13.17L94.86 13.17Q94.99 12.64 95.23 11.97L95.23 11.97L95.23 11.97Q95.48 11.30 95.81 10.65L95.81 10.65L95.81 10.65Q96.14 10.00 96.54 9.43L96.54 9.43L96.54 9.43Q96.94 8.86 97.37 8.54L97.37 8.54L97.37 8.54Q97.48 8.54 97.65 8.56L97.65 8.56L97.65 8.56Q97.82 8.58 98 8.64L98 8.64L98 8.64Q98.18 8.69 98.35 8.77L98.35 8.77L98.35 8.77Q98.52 8.85 98.64 8.97L98.64 8.97L98.64 8.97Q98.49 9.11 97.97 9.91L97.97 9.91L97.97 9.91Q97.45 10.71 96.82 12.21L96.82 12.21L96.82 12.21Q96.75 12.36 96.66 12.66L96.66 12.66L96.66 12.66Q96.56 12.95 96.47 13.27L96.47 13.27L96.47 13.27Q96.38 13.59 96.31 13.90L96.31 13.90L96.31 13.90Q96.24 14.21 96.24 14.39L96.24 14.39L96.24 14.39Q96.24 14.50 96.27 14.56L96.27 14.56L96.27 14.56Q96.31 14.62 96.33 14.64L96.33 14.64L96.33 14.64Q96.59 14.60 97.01 14.23L97.01 14.23L97.01 14.23Q97.43 13.86 97.96 13.08L97.96 13.08L97.96 13.08Q98.29 12.57 98.57 12.07L98.57 12.07L98.57 12.07Q98.85 11.58 99.13 11.07L99.13 11.07L99.13 11.07Q99.40 10.57 99.69 10.04L99.69 10.04L99.69 10.04Q99.99 9.51 100.32 8.95L100.32 8.95L100.32 8.95Q100.51 8.95 100.72 8.99L100.72 8.99L100.72 8.99Q100.93 9.03 101.12 9.09L101.12 9.09L101.12 9.09Q101.32 9.16 101.46 9.23L101.46 9.23L101.46 9.23Q101.61 9.31 101.68 9.39L101.68 9.39L101.68 9.39Q101.25 10.32 100.87 11.20L100.87 11.20L100.87 11.20Q100.49 12.08 100.20 13.01Z"></path></g></svg>