<svg data-v-fde0c5aa="" xmlns="http://www.w3.org/2000/svg" viewBox="0 0 300 300" class="font"><!----><defs data-v-fde0c5aa=""><!----></defs><rect data-v-fde0c5aa="" fill="#161C60" x="0" y="0" width="300px" height="300px" class="logo-background-square"></rect><defs data-v-fde0c5aa=""><!----></defs><g data-v-fde0c5aa="" id="4f3fc4df-d72d-4f42-b608-0bdb78a0c73d" fill="#D6B425" transform="matrix(3.4564021166684826,0,0,3.4564021166684826,39.13589947083288,117.33699900859824)"><path d="M4.86 13.23L4.86 13.23Q3.37 13.23 2.35 12.82L2.35 12.82L2.35 12.82Q1.32 12.42 0.80 11.74L0.80 11.74L0.80 11.74Q0.28 11.06 0.25 10.25L0.25 10.25L0.25 10.25Q0.25 10.12 0.34 10.03L0.34 10.03L0.34 10.03Q0.43 9.94 0.56 9.94L0.56 9.94L3.22 9.94L3.22 9.94Q3.42 9.94 3.54 9.99L3.54 9.99L3.54 9.99Q3.65 10.04 3.82 10.18L3.82 10.18L3.82 10.18Q4.23 10.50 4.86 10.50L4.86 10.50L4.86 10.50Q5.33 10.50 5.62 10.39L5.62 10.39L5.62 10.39Q5.91 10.29 5.91 10.11L5.91 10.11L5.91 10.11Q5.91 9.86 5.53 9.72L5.53 9.72L5.53 9.72Q5.15 9.59 4.10 9.45L4.10 9.45L4.10 9.45Q0.49 8.97 0.49 6.37L0.49 6.37L0.49 6.37Q0.49 5.43 1.03 4.70L1.03 4.70L1.03 4.70Q1.57 3.96 2.53 3.56L2.53 3.56L2.53 3.56Q3.50 3.15 4.76 3.15L4.76 3.15L4.76 3.15Q6.08 3.15 7.07 3.60L7.07 3.60L7.07 3.60Q8.06 4.05 8.60 4.72L8.60 4.72L8.60 4.72Q9.13 5.40 9.16 6.05L9.16 6.05L9.16 6.05Q9.16 6.17 9.06 6.26L9.06 6.26L9.06 6.26Q8.97 6.36 8.86 6.36L8.86 6.36L6.06 6.36L6.06 6.36Q5.87 6.36 5.75 6.31L5.75 6.31L5.75 6.31Q5.64 6.26 5.50 6.13L5.50 6.13L5.50 6.13Q5.21 5.88 4.76 5.88L4.76 5.88L4.76 5.88Q4.09 5.88 4.09 6.27L4.09 6.27L4.09 6.27Q4.09 6.48 4.42 6.62L4.42 6.62L4.42 6.62Q4.75 6.76 5.64 6.87L5.64 6.87L5.64 6.87Q7.04 7.06 7.89 7.42L7.89 7.42L7.89 7.42Q8.74 7.78 9.12 8.39L9.12 8.39L9.12 8.39Q9.51 9.00 9.51 9.93L9.51 9.93L9.51 9.93Q9.51 10.92 8.90 11.67L8.90 11.67L8.90 11.67Q8.30 12.42 7.25 12.82L7.25 12.82L7.25 12.82Q6.19 13.23 4.86 13.23L4.86 13.23ZM10.77 13.09L10.77 13.09Q10.61 13.09 10.50 12.98L10.50 12.98L10.50 12.98Q10.39 12.87 10.39 12.71L10.39 12.71L10.39 3.53L10.39 3.53Q10.39 3.37 10.50 3.26L10.50 3.26L10.50 3.26Q10.61 3.15 10.77 3.15L10.77 3.15L13.50 3.15L13.50 3.15Q13.65 3.15 13.76 3.26L13.76 3.26L13.76 3.26Q13.87 3.37 13.87 3.53L13.87 3.53L13.87 6.54L13.87 6.54Q14.25 6.13 14.80 5.90L14.80 5.90L14.80 5.90Q15.36 5.67 16.00 5.67L16.00 5.67L16.00 5.67Q16.74 5.67 17.37 6.01L17.37 6.01L17.37 6.01Q18.00 6.36 18.40 7.08L18.40 7.08L18.40 7.08Q18.79 7.80 18.79 8.85L18.79 8.85L18.79 12.71L18.79 12.71Q18.79 12.87 18.68 12.98L18.68 12.98L18.68 12.98Q18.56 13.09 18.41 13.09L18.41 13.09L15.67 13.09L15.67 13.09Q15.51 13.09 15.40 12.98L15.40 12.98L15.40 12.98Q15.29 12.87 15.29 12.71L15.29 12.71L15.29 8.95L15.29 8.95Q15.29 8.57 15.11 8.37L15.11 8.37L15.11 8.37Q14.92 8.18 14.59 8.18L14.59 8.18L14.59 8.18Q14.25 8.18 14.06 8.37L14.06 8.37L14.06 8.37Q13.87 8.57 13.87 8.95L13.87 8.95L13.87 12.71L13.87 12.71Q13.87 12.87 13.76 12.98L13.76 12.98L13.76 12.98Q13.65 13.09 13.50 13.09L13.50 13.09L10.77 13.09ZM23.84 13.23L23.84 13.23Q19.99 13.23 19.78 10.11L19.78 10.11L19.78 10.11Q19.77 9.90 19.77 9.45L19.77 9.45L19.77 9.45Q19.77 9.00 19.78 8.79L19.78 8.79L19.78 8.79Q19.88 7.27 20.94 6.47L20.94 6.47L20.94 6.47Q22.01 5.67 23.84 5.67L23.84 5.67L23.84 5.67Q25.68 5.67 26.74 6.47L26.74 6.47L26.74 6.47Q27.80 7.27 27.90 8.79L27.90 8.79L27.90 8.79Q27.93 9.21 27.93 9.45L27.93 9.45L27.93 9.45Q27.93 9.69 27.90 10.11L27.90 10.11L27.90 10.11Q27.69 13.23 23.84 13.23L23.84 13.23ZM23.84 10.99L23.84 10.99Q24.22 10.99 24.33 10.79L24.33 10.79L24.33 10.79Q24.44 10.58 24.47 10.04L24.47 10.04L24.47 10.04Q24.49 9.90 24.49 9.45L24.49 9.45L24.49 9.45Q24.49 9.00 24.47 8.86L24.47 8.86L24.47 8.86Q24.43 8.33 24.32 8.12L24.32 8.12L24.32 8.12Q24.21 7.91 23.84 7.91L23.84 7.91L23.84 7.91Q23.48 7.91 23.37 8.12L23.37 8.12L23.37 8.12Q23.25 8.33 23.21 8.86L23.21 8.86L23.20 9.45L23.21 10.04L23.21 10.04Q23.24 10.58 23.35 10.79L23.35 10.79L23.35 10.79Q23.46 10.99 23.84 10.99L23.84 10.99ZM29.34 13.09L29.34 13.09Q29.19 13.09 29.08 12.98L29.08 12.98L29.08 12.98Q28.97 12.87 28.97 12.71L28.97 12.71L28.97 6.19L28.97 6.19Q28.97 6.03 29.08 5.92L29.08 5.92L29.08 5.92Q29.19 5.81 29.34 5.81L29.34 5.81L31.79 5.81L31.79 5.81Q31.95 5.81 32.06 5.92L32.06 5.92L32.06 5.92Q32.17 6.03 32.17 6.19L32.17 6.19L32.17 6.68L32.17 6.68Q32.63 6.27 33.19 6.04L33.19 6.04L33.19 6.04Q33.75 5.81 34.36 5.81L34.36 5.81L35.03 5.81L35.03 5.81Q35.18 5.81 35.29 5.92L35.29 5.92L35.29 5.92Q35.41 6.03 35.41 6.19L35.41 6.19L35.41 8.37L35.41 8.37Q35.41 8.53 35.29 8.64L35.29 8.64L35.29 8.64Q35.18 8.75 35.03 8.75L35.03 8.75L33.22 8.75L33.22 8.75Q32.38 8.75 32.38 9.59L32.38 9.59L32.38 12.71L32.38 12.71Q32.38 12.87 32.27 12.98L32.27 12.98L32.27 12.98Q32.16 13.09 32.00 13.09L32.00 13.09L29.34 13.09ZM40.73 13.09L40.73 13.09Q39.07 13.09 38.15 12.40L38.15 12.40L38.15 12.40Q37.23 11.70 37.23 10.08L37.23 10.08L37.23 8.26L36.12 8.26L36.12 8.26Q35.97 8.26 35.85 8.15L35.85 8.15L35.85 8.15Q35.74 8.04 35.74 7.88L35.74 7.88L35.74 6.19L35.74 6.19Q35.74 6.03 35.85 5.92L35.85 5.92L35.85 5.92Q35.97 5.81 36.12 5.81L36.12 5.81L37.23 5.81L37.23 3.53L37.23 3.53Q37.23 3.37 37.34 3.26L37.34 3.26L37.34 3.26Q37.45 3.15 37.60 3.15L37.60 3.15L40.05 3.15L40.05 3.15Q40.21 3.15 40.32 3.26L40.32 3.26L40.32 3.26Q40.43 3.37 40.43 3.53L40.43 3.53L40.43 5.81L42.20 5.81L42.20 5.81Q42.35 5.81 42.46 5.92L42.46 5.92L42.46 5.92Q42.57 6.03 42.57 6.19L42.57 6.19L42.57 7.88L42.57 7.88Q42.57 8.04 42.46 8.15L42.46 8.15L42.46 8.15Q42.35 8.26 42.20 8.26L42.20 8.26L40.43 8.26L40.43 9.80L40.43 9.80Q40.43 10.50 41.03 10.50L41.03 10.50L42.31 10.50L42.31 10.50Q42.46 10.50 42.57 10.61L42.57 10.61L42.57 10.61Q42.69 10.72 42.69 10.88L42.69 10.88L42.69 12.71L42.69 12.71Q42.69 12.87 42.57 12.98L42.57 12.98L42.57 12.98Q42.46 13.09 42.31 13.09L42.31 13.09L40.73 13.09ZM46.65 13.09L46.65 13.09Q46.49 13.09 46.38 12.98L46.38 12.98L46.38 12.98Q46.27 12.87 46.27 12.71L46.27 12.71L46.27 6.19L46.27 6.19Q46.27 6.03 46.38 5.92L46.38 5.92L46.38 5.92Q46.49 5.81 46.65 5.81L46.65 5.81L49.10 5.81L49.10 5.81Q49.25 5.81 49.36 5.92L49.36 5.92L49.36 5.92Q49.48 6.03 49.48 6.19L49.48 6.19L49.48 6.65L49.48 6.65Q49.84 6.22 50.46 5.94L50.46 5.94L50.46 5.94Q51.09 5.67 51.80 5.67L51.80 5.67L51.80 5.67Q52.54 5.67 53.16 6.01L53.16 6.01L53.16 6.01Q53.77 6.36 54.15 7.07L54.15 7.07L54.15 7.07Q54.52 7.78 54.52 8.85L54.52 8.85L54.52 12.71L54.52 12.71Q54.52 12.87 54.40 12.98L54.40 12.98L54.40 12.98Q54.29 13.09 54.14 13.09L54.14 13.09L51.46 13.09L51.46 13.09Q51.31 13.09 51.20 12.98L51.20 12.98L51.20 12.98Q51.09 12.87 51.09 12.71L51.09 12.71L51.09 8.95L51.09 8.95Q51.09 8.57 50.90 8.37L50.90 8.37L50.90 8.37Q50.72 8.18 50.39 8.18L50.39 8.18L50.39 8.18Q50.05 8.18 49.87 8.37L49.87 8.37L49.87 8.37Q49.69 8.57 49.69 8.95L49.69 8.95L49.69 12.71L49.69 12.71Q49.69 12.87 49.57 12.98L49.57 12.98L49.57 12.98Q49.46 13.09 49.31 13.09L49.31 13.09L46.65 13.09ZM57.15 15.75L57.15 15.75Q57.02 15.75 56.93 15.67L56.93 15.67L56.93 15.67Q56.84 15.58 56.84 15.46L56.84 15.46L56.84 15.46Q56.84 15.44 56.83 15.40L56.83 15.40L56.83 15.40Q56.83 15.36 56.85 15.32L56.85 15.32L57.97 12.63L55.27 6.24L55.27 6.24Q55.26 6.20 55.26 6.15L55.26 6.15L55.26 6.15Q55.29 6.01 55.38 5.91L55.38 5.91L55.38 5.91Q55.48 5.81 55.61 5.81L55.61 5.81L57.97 5.81L57.97 5.81Q58.30 5.81 58.42 6.15L58.42 6.15L59.57 9.34L60.76 6.15L60.76 6.15Q60.90 5.81 61.24 5.81L61.24 5.81L63.57 5.81L63.57 5.81Q63.70 5.81 63.80 5.90L63.80 5.90L63.80 5.90Q63.90 5.99 63.90 6.10L63.90 6.10L63.90 6.10Q63.90 6.19 63.88 6.24L63.88 6.24L59.93 15.41L59.93 15.41Q59.79 15.75 59.44 15.75L59.44 15.75L57.15 15.75Z"></path></g><!----><!----></svg>